<svg width="100%" height="100%" id="svg" viewBox="0 0 1440 600" xmlns="http://www.w3.org/2000/svg" class="transition duration-300 ease-in-out delay-150"><defs><linearGradient id="gradient" x1="0%" y1="50%" x2="100%" y2="50%"><stop offset="5%" stop-color="#0693e3"></stop><stop offset="95%" stop-color="#32ded4"></stop></linearGradient></defs><path d="M 0,600 C 0,600 0,120 0,120 C 25.649926824074022,116.65539655724467 51.299853648148044,113.31079311448934 81,109 C 110.70014635185196,104.68920688551066 144.45051223148184,99.41222409928729 175,91 C 205.54948776851816,82.58777590071271 232.89809742592462,71.04031048836154 264,84 C 295.1019025740754,96.95968951163846 329.9570980648198,134.42653394726653 358,137 C 386.0429019351802,139.57346605273347 407.2735103147962,107.25355372257233 433,103 C 458.7264896852038,98.74644627742767 488.9488606759953,122.55925116244413 525,137 C 561.0511393240047,151.44074883755587 602.9310469812222,156.50944162765114 639,160 C 675.0689530187778,163.49055837234886 705.3269513991163,165.4029823269514 736,148 C 766.6730486008837,130.5970176730486 797.7611474223127,93.87862906454332 822,99 C 846.2388525776873,104.12137093545668 863.6284589116334,151.08250141487545 895,152 C 926.3715410883666,152.91749858512455 971.7250169311535,107.79136527595492 1006,91 C 1040.2749830688465,74.20863472404508 1063.471473363752,85.75203748130488 1090,96 C 1116.528526636248,106.24796251869512 1146.3890896138396,115.20048479882553 1180,130 C 1213.6109103861604,144.79951520117447 1250.9721681808892,165.44602332339312 1275,161 C 1299.0278318191108,156.55397667660688 1309.7222376626032,127.01542190760195 1335,116 C 1360.2777623373968,104.98457809239805 1400.1388811686984,112.49228904619903 1440,120 C 1440,120 1440,600 1440,600 Z" stroke="none" stroke-width="0" fill="url(#gradient)" fillOpacity="0.265" class="transition-all duration-300 ease-in-out delay-150 path-0" transform="rotate(-180 720 300)"></path><defs><linearGradient id="gradient" x1="0%" y1="50%" x2="100%" y2="50%"><stop offset="5%" stop-color="#0693e3"></stop><stop offset="95%" stop-color="#32ded4"></stop></linearGradient></defs><path d="M 0,600 C 0,600 0,240 0,240 C 29.08830918411679,236.83310821075452 58.17661836823358,233.666216421509 86,226 C 113.82338163176642,218.333783578491 140.38183571118245,206.16824252471852 172,198 C 203.61816428881755,189.83175747528148 240.2960387870367,185.66081347961685 272,203 C 303.7039612129633,220.33918652038315 330.43400914067064,259.18850355681417 364,265 C 397.56599085932936,270.81149644318583 437.9679246502807,243.58517229312667 466,235 C 494.0320753497193,226.41482770687333 509.6942922582068,236.47080727067922 533,240 C 556.3057077417932,243.52919272932078 587.2549063168916,240.53159862415643 621,247 C 654.7450936831084,253.46840137584357 691.2860824742268,269.40279823269515 719,271 C 746.7139175257732,272.59720176730485 765.6007637862012,259.85720844506307 795,247 C 824.3992362137988,234.14279155493693 864.3108623809684,221.16836798705273 896,231 C 927.6891376190316,240.83163201294727 951.1557866899254,273.46931960672606 985,263 C 1018.8442133100746,252.53068039327394 1063.0659908593295,198.954353586043 1089,204 C 1114.9340091406705,209.045646413957 1122.5802498727571,272.7132660491019 1155,272 C 1187.4197501272429,271.2867339508981 1244.613009649642,206.19258221754944 1276,199 C 1307.386990350358,191.80741778245056 1312.9677115286736,242.51640508070017 1336,259 C 1359.0322884713264,275.48359491929983 1399.5161442356632,257.7417974596499 1440,240 C 1440,240 1440,600 1440,600 Z" stroke="none" stroke-width="0" fill="url(#gradient)" fillOpacity="0.4" class="transition-all duration-300 ease-in-out delay-150 path-1" transform="rotate(-180 720 300)"></path><defs><linearGradient id="gradient" x1="0%" y1="50%" x2="100%" y2="50%"><stop offset="5%" stop-color="#0693e3"></stop><stop offset="95%" stop-color="#32ded4"></stop></linearGradient></defs><path d="M 0,600 C 0,600 0,360 0,360 C 30.616306259545176,349.9825115739591 61.23261251909035,339.9650231479181 88,347 C 114.76738748090965,354.0349768520819 137.68585618318377,378.1224189822868 165,386 C 192.31414381681623,393.8775810177132 224.0239627481746,385.54530092293476 258,391 C 291.9760372518254,396.45469907706524 328.218292824118,415.69637732597425 359,396 C 389.781707175882,376.30362267402575 415.1028659553533,317.6691897731683 441,322 C 466.8971340446467,326.3308102268317 493.37024335446847,393.6268635813525 524,395 C 554.6297566455315,396.3731364186475 589.4161606267731,331.82335590142185 621,319 C 652.5838393732269,306.17664409857815 680.9651141384389,345.0797128129602 714,370 C 747.0348858615611,394.9202871870398 784.7233828194713,405.8577928467372 814,396 C 843.2766171805287,386.1422071532628 864.141354583676,355.4891158000908 891,343 C 917.858645416324,330.5108841999092 950.7111988458247,336.18574395289943 986,335 C 1021.2888011541753,333.81425604710057 1059.013850033025,325.76790838831147 1087,329 C 1114.986149966975,332.23209161168853 1133.2334010220757,346.74262249385464 1160,366 C 1186.7665989779243,385.25737750614536 1222.052545878672,409.2616016362699 1251,398 C 1279.947454121328,386.7383983637301 1302.5564154632366,340.21097096106575 1333,328 C 1363.4435845367634,315.78902903893425 1401.7217922683817,337.8945145194671 1440,360 C 1440,360 1440,600 1440,600 Z" stroke="none" stroke-width="0" fill="url(#gradient)" fillOpacity="0.53" class="transition-all duration-300 ease-in-out delay-150 path-2" transform="rotate(-180 720 300)"></path><defs><linearGradient id="gradient" x1="0%" y1="50%" x2="100%" y2="50%"><stop offset="5%" stop-color="#0693e3"></stop><stop offset="95%" stop-color="#32ded4"></stop></linearGradient></defs><path d="M 0,600 C 0,600 0,480 0,480 C 24.895016383478954,492.5574560453317 49.79003276695791,505.1149120906635 80,496 C 110.2099672330421,486.8850879093365 145.73488531564732,456.09780768267774 175,452 C 204.26511468435268,447.90219231732226 227.27042597045272,470.4938571786253 262,473 C 296.7295740295473,475.5061428213747 343.1834108025418,457.92676360282115 373,445 C 402.8165891974582,432.07323639717885 415.9959308193802,423.7990884100902 442,435 C 468.0040691806198,446.2009115899098 506.8328659199375,476.8768827568184 535,487 C 563.1671340800625,497.1231172431816 580.6726055008698,486.6933805626363 615,475 C 649.3273944991302,463.3066194373637 700.4767120765832,450.34959499263624 735,455 C 769.5232879234168,459.65040500736376 787.4205461927972,481.9082394668187 813,489 C 838.5794538072028,496.0917605331813 871.8411031522276,488.0174471400888 902,495 C 932.1588968477724,501.9825528599112 959.2150411982931,524.0219719728259 988,514 C 1016.7849588017069,503.97802802717405 1047.298732054601,461.8946649686074 1078,453 C 1108.701267945399,444.1053350313926 1139.590030583303,468.39936815274444 1173,482 C 1206.409969416697,495.60063184725556 1242.3411456121878,498.50786242041494 1274,493 C 1305.6588543878122,487.49213757958506 1333.0453869679463,473.56918216559575 1360,470 C 1386.9546130320537,466.43081783440425 1413.4773065160268,473.2154089172021 1440,480 C 1440,480 1440,600 1440,600 Z" stroke="none" stroke-width="0" fill="url(#gradient)" fillOpacity="1" class="transition-all duration-300 ease-in-out delay-150 path-3" transform="rotate(-180 720 300)"></path></svg>